<?xml version="1.0" encoding="utf-8"?>
<svg xmlns="http://www.w3.org/2000/svg" viewBox="1.9501 1.9451 20.1003 20.1096" width="67.001px" height="67.032px"><path d="M 8.672 18.122 C 8.672 18.211 8.585 18.273 8.46 18.273 C 8.335 18.273 8.234 18.273 8.234 18.122 C 8.234 17.971 8.335 17.971 8.447 17.971 C 8.56 17.971 8.672 18.034 8.672 18.122 Z" style="fill: rgb(255, 255, 255);" id="object-0"/><path d="M 6.25 16.804 C 6.25 16.804 6.25 16.953 6.25 17.054 C 6.25 17.154 6.425 17.193 6.487 17.154 C 6.52 17.118 6.537 17.073 6.537 17.022 C 6.537 16.975 6.52 16.928 6.487 16.891 C 6.425 16.791 6.325 16.752 6.25 16.804 Z" style="fill: rgb(255, 255, 255);" id="object-0"/><path d="M 6.714 17.418 C 6.714 17.418 6.714 17.594 6.714 17.683 C 6.714 17.77 6.928 17.783 6.977 17.683 C 7.028 17.582 6.977 17.507 6.977 17.418 C 6.977 17.331 6.814 17.355 6.763 17.418 L 6.714 17.418 Z" style="fill: rgb(255, 255, 255);" id="object-0"/><path d="M 5.457 15.937 C 5.457 15.937 5.457 16.063 5.545 16.101 C 5.556 16.113 5.57 16.124 5.585 16.131 C 5.6 16.139 5.617 16.142 5.633 16.142 C 5.651 16.142 5.667 16.139 5.683 16.131 C 5.697 16.124 5.711 16.113 5.7219999999999995 16.101 C 5.7219999999999995 16.101 5.7219999999999995 15.975 5.633 15.937 C 5.545 15.9 5.483 15.9 5.457 15.937 Z" style="fill: rgb(255, 255, 255);" id="object-0"/><path d="M 5.897 16.276 C 5.897 16.276 5.897 16.413 5.897 16.489 C 5.912 16.503 5.928 16.514 5.946 16.523 C 5.964 16.53 5.985 16.535 6.004 16.535 C 6.024 16.535 6.043 16.53 6.061 16.523 C 6.08 16.514 6.096 16.503 6.111 16.489 C 6.111 16.489 6.111 16.351 6.111 16.264 C 6.111 16.176 5.948 16.226 5.897 16.276 Z" style="fill: rgb(255, 255, 255);" id="object-0"/><path d="M 11.875 1.9460000000000002 C 10.55 1.933 9.237 2.19 8.015 2.698 C 6.792 3.203 5.683 3.9530000000000003 4.755 4.901 C 3.829 5.847 3.104 6.971 2.622 8.204 C 2.1390000000000002 9.438 1.913 10.758 1.955 12.083 C 1.9180000000000001 14.25 2.5620000000000003 16.376 3.794 18.161 C 5.024 19.948 6.784 21.302 8.824 22.04 C 9.339 22.128 9.528 21.803 9.528 21.538 C 9.528 21.274 9.528 19.856 9.528 19.026 C 9.528 19.026 6.689 19.655 6.086 17.77 C 6.086 17.77 5.633 16.514 4.968 16.251 C 4.968 16.251 4.04 15.598 5.031 15.608 C 5.355 15.655 5.666 15.774000000000001 5.937 15.959 C 6.207 16.144 6.429 16.391 6.589 16.677 C 6.72 16.936 6.901 17.163 7.125 17.347 C 7.348 17.532 7.606 17.67 7.884 17.75 C 8.161 17.831 8.452 17.855 8.739 17.819 C 9.027 17.785 9.303 17.69 9.552 17.544 C 9.6 17.02 9.825 16.528 10.192 16.15 C 7.933 15.886 5.647 15.56 5.647 11.553 C 5.621 11.102 5.694 10.647 5.859 10.227 C 6.024 9.805 6.277 9.423 6.6 9.104 C 6.295 8.186 6.33 7.187 6.7 6.291 C 7.555 6.015 9.503 7.41 9.503 7.41 C 11.164 6.941 12.926 6.941 14.588 7.41 C 14.588 7.41 16.535 6.015 17.389 6.291 C 17.766 7.185 17.803 8.188 17.489 9.104 C 17.825 9.417 18.09 9.797 18.27 10.219 C 18.451 10.641 18.539 11.095 18.531 11.553 C 18.531 15.572 16.146 15.886 13.885 16.15 C 14.112 16.405 14.285 16.704 14.393 17.027 C 14.502 17.351 14.541 17.693 14.513 18.034 C 14.513 19.44 14.513 21.173 14.513 21.512 C 14.512 21.598 14.532 21.681 14.569 21.757 C 14.607 21.834 14.664 21.899 14.735 21.947 C 14.803 21.997 14.882 22.029 14.967 22.039 C 15.051 22.052 15.136 22.043 15.215 22.015 C 17.253 21.285 19.007 19.932 20.233 18.15 C 21.458 16.367 22.094 14.245 22.048 12.083 C 22.059 10.745 21.806 9.418 21.298000000000002 8.18 C 20.789 6.943 20.04 5.818 19.093 4.875 C 18.146 3.931 17.018 3.186 15.779 2.683 C 14.54 2.18 13.213 1.928 11.875 1.9460000000000002 Z" style="fill: rgb(255, 255, 255);" id="object-0"/><path d="M 9.201 17.871 C 9.087 17.871 9.011 17.971 9.025 18.072 C 9.037 18.172 9.138 18.211 9.263 18.185 C 9.389 18.159 9.452 18.072 9.44 17.984 C 9.428 17.895 9.326 17.858 9.201 17.871 Z" style="fill: rgb(255, 255, 255);" id="object-0"/><path d="M 7.418 17.934 C 7.418 18.021 7.418 18.122 7.594 18.148 C 7.6370000000000005 18.168 7.6899999999999995 18.171 7.736 18.155 C 7.784 18.14 7.822 18.104 7.843 18.059 C 7.843 17.971 7.843 17.883 7.667 17.846 C 7.493 17.809 7.442 17.846 7.418 17.934 Z" style="fill: rgb(255, 255, 255);" id="object-0"/></svg>